<svg id="visual" viewBox="0 0 430 932" width="430" height="932" xmlns="http://www.w3.org/2000/svg" xmlns:xlink="http://www.w3.org/1999/xlink" version="1.1"><rect x="0" y="0" width="430" height="932" fill="#002233"></rect><path d="M364 932L366.3 916.5C368.7 901 373.3 870 373.5 839C373.7 808 369.3 777 368.8 745.8C368.3 714.7 371.7 683.3 375.8 652.2C380 621 385 590 383.7 559C382.3 528 374.7 497 369.3 466C364 435 361 404 360.2 373C359.3 342 360.7 311 367.5 279.8C374.3 248.7 386.7 217.3 395.7 186.2C404.7 155 410.3 124 411.7 93C413 62 410 31 408.5 15.5L407 0L430 0L430 15.5C430 31 430 62 430 93C430 124 430 155 430 186.2C430 217.3 430 248.7 430 279.8C430 311 430 342 430 373C430 404 430 435 430 466C430 497 430 528 430 559C430 590 430 621 430 652.2C430 683.3 430 714.7 430 745.8C430 777 430 808 430 839C430 870 430 901 430 916.5L430 932Z" fill="#0066FF" stroke-linecap="round" stroke-linejoin="miter"></path></svg>